<svg width="62" height="62" viewBox="0 0 62 62" fill="none" xmlns="http://www.w3.org/2000/svg">
<path d="M55.7031 21.8937C59.1906 21.8937 62 19.0359 62 15.5484C62 12.0609 59.1906 9.20312 55.7031 9.20312H18.9391C15.4516 9.20312 12.5938 12.0609 12.6422 15.5484C12.6422 19.0359 15.4516 21.8937 18.9391 21.8937H55.7031Z" fill="white"/>
<path d="M55.6063 31C55.6063 34.4875 52.7969 37.3453 49.3094 37.3453H12.5938C9.10625 37.3453 6.29688 34.4875 6.29688 31C6.29688 27.5125 9.10625 24.6547 12.5938 24.6547H49.3094C52.7969 24.6547 55.6063 27.5125 55.6063 31Z" fill="white"/>
<path d="M6.29688 40.1063C2.80938 40.1063 0 42.9641 0 46.4516C0 49.9391 2.80938 52.7969 6.29688 52.7969C9.78437 52.7969 12.5938 49.9391 12.5938 46.4516C12.5938 42.9641 9.78437 40.1063 6.29688 40.1063Z" fill="white"/>
<path d="M43.2062 52.7969C46.6937 52.7969 49.5031 49.9391 49.5031 46.4516C49.5031 42.9156 46.6937 40.1063 43.2062 40.1063H21.6516C18.1641 40.1063 15.3547 42.9641 15.3547 46.4516C15.3547 49.9391 18.1641 52.7969 21.6516 52.7969H43.2062Z" fill="white"/>
</svg>
